{"asset":{"version":"2.0","generator":"Blockbench 5.0.7 glTF exporter"},"scenes":[{"nodes":[1,3,5,7,10,12],"name":"blockbench_export"}],"scene":0,"nodes":[{"name":"head","mesh":0},{"rotation":[0,0.7071067811865475,0,0.7071067811865476],"translation":[0,1.4375,0],"name":"head_group","children":[0]},{"rotation":[0,0.7071067811865475,0,0.7071067811865476],"translation":[0,0.6875,0],"name":"torso","mesh":1},{"name":"torso_group","children":[2]},{"rotation":[0,0.7071067811865475,0,0.7071067811865476],"translation":[0,-0.625,0],"name":"R_leg","mesh":2},{"translation":[0,0.625,0.125],"name":"R_leg_group","children":[4]},{"rotation":[0,0.7071067811865475,0,0.7071067811865476],"translation":[0,-0.625,0],"name":"L_leg","mesh":3},{"translation":[0,0.625,-0.125],"name":"L_leg_group","children":[6]},{"rotation":[0,0.7071067811865475,0,0.7071067811865476],"translation":[0,-0.6875,0.0625],"name":"R_arm","mesh":4},{"rotation":[0.4999999999999999,0.5,-0.5,0.5000000000000001],"translation":[0.125,-0.625,0.0625],"name":"hand"},{"translation":[0,1.375,0.3125],"name":"R_arm_group","children":[8,9]},{"rotation":[0,0.7071067811865475,0,0.7071067811865476],"translation":[0,-0.6875,-0.0625],"name":"L_arm","mesh":5},{"translation":[0,1.375,-0.3125],"name":"l_arm_group","children":[11]}],"bufferViews":[{"buffer":0,"byteOffset":0,"byteLength":288,"target":34962,"byteStride":12},{"buffer":0,"byteOffset":288,"byteLength":288,"target":34962,"byteStride":12},{"buffer":0,"byteOffset":576,"byteLength":192,"target":34962,"byteStride":8},{"buffer":0,"byteOffset":768,"byteLength":72,"target":34963},{"buffer":0,"byteOffset":840,"byteLength":288,"target":34962,"byteStride":12},{"buffer":0,"byteOffset":1128,"byteLength":288,"target":34962,"byteStride":12},{"buffer":0,"byteOffset":1416,"byteLength":192,"target":34962,"byteStride":8},{"buffer":0,"byteOffset":1608,"byteLength":72,"target":34963},{"buffer":0,"byteOffset":1680,"byteLength":288,"target":34962,"byteStride":12},{"buffer":0,"byteOffset":1968,"byteLength":288,"target":34962,"byteStride":12},{"buffer":0,"byteOffset":2256,"byteLength":192,"target":34962,"byteStride":8},{"buffer":0,"byteOffset":2448,"byteLength":72,"target":34963},{"buffer":0,"byteOffset":2520,"byteLength":288,"target":34962,"byteStride":12},{"buffer":0,"byteOffset":2808,"byteLength":288,"target":34962,"byteStride":12},{"buffer":0,"byteOffset":3096,"byteLength":192,"target":34962,"byteStride":8},{"buffer":0,"byteOffset":3288,"byteLength":72,"target":34963},{"buffer":0,"byteOffset":3360,"byteLength":288,"target":34962,"byteStride":12},{"buffer":0,"byteOffset":3648,"byteLength":288,"target":34962,"byteStride":12},{"buffer":0,"byteOffset":3936,"byteLength":192,"target":34962,"byteStride":8},{"buffer":0,"byteOffset":4128,"byteLength":72,"target":34963},{"buffer":0,"byteOffset":4200,"byteLength":288,"target":34962,"byteStride":12},{"buffer":0,"byteOffset":4488,"byteLength":288,"target":34962,"byteStride":12},{"buffer":0,"byteOffset":4776,"byteLength":192,"target":34962,"byteStride":8},{"buffer":0,"byteOffset":4968,"byteLength":72,"target":34963},{"buffer":0,"byteOffset":5040,"byteLength":12},{"buffer":0,"byteOffset":5052,"byteLength":48},{"buffer":0,"byteOffset":5100,"byteLength":12},{"buffer":0,"byteOffset":5112,"byteLength":48},{"buffer":0,"byteOffset":5160,"byteLength":20},{"buffer":0,"byteOffset":5180,"byteLength":80},{"buffer":0,"byteOffset":5260,"byteLength":20},{"buffer":0,"byteOffset":5280,"byteLength":80},{"buffer":0,"byteOffset":5360,"byteLength":20},{"buffer":0,"byteOffset":5380,"byteLength":80},{"buffer":0,"byteOffset":5460,"byteLength":20},{"buffer":0,"byteOffset":5480,"byteLength":80},{"buffer":0,"byteOffset":5560,"byteLength":108},{"buffer":0,"byteOffset":5668,"byteLength":432},{"buffer":0,"byteOffset":6100,"byteLength":8},{"buffer":0,"byteOffset":6108,"byteLength":32},{"buffer":0,"byteOffset":6140,"byteLength":8},{"buffer":0,"byteOffset":6148,"byteLength":32},{"buffer":0,"byteOffset":6180,"byteLength":8},{"buffer":0,"byteOffset":6188,"byteLength":24},{"buffer":0,"byteOffset":6212,"byteLength":36},{"buffer":0,"byteOffset":6248,"byteLength":144}],"buffers":[{"byteLength":6392,"uri":"data:application/octet-stream;base64,"}],"accessors":[{"bufferView":0,"componentType":5126,"count":24,"max":[0.25,0.5,0.25],"min":[-0.25,0,-0.25],"type":"VEC3"},{"bufferView":1,"componentType":5126,"count":24,"max":[1,1,1],"min":[-1,-1,-1],"type":"VEC3"},{"bufferView":2,"componentType":5126,"count":24,"max":[0.375,0.4375],"min":[0,0],"type":"VEC2"},{"bufferView":3,"componentType":5123,"count":36,"max":[23],"min":[0],"type":"SCALAR"},{"bufferView":4,"componentType":5126,"count":24,"max":[0.25,0.75,0.125],"min":[-0.25,0,-0.125],"type":"VEC3"},{"bufferView":5,"componentType":5126,"count":24,"max":[1,1,1],"min":[-1,-1,-1],"type":"VEC3"},{"bufferView":6,"componentType":5126,"count":24,"max":[0.6875,0.5],"min":[0,0],"type":"VEC2"},{"bufferView":7,"componentType":5123,"count":36,"max":[23],"min":[0],"type":"SCALAR"},{"bufferView":8,"componentType":5126,"count":24,"max":[0.125,0.6875,0.125],"min":[-0.125,0,-0.125],"type":"VEC3"},{"bufferView":9,"componentType":5126,"count":24,"max":[1,1,1],"min":[-1,-1,-1],"type":"VEC3"},{"bufferView":10,"componentType":5126,"count":24,"max":[0.625,0.671875],"min":[0.125,0],"type":"VEC2"},{"bufferView":11,"componentType":5123,"count":36,"max":[23],"min":[0],"type":"SCALAR"},{"bufferView":12,"componentType":5126,"count":24,"max":[0.125,0.6875,0.125],"min":[-0.125,0,-0.125],"type":"VEC3"},{"bufferView":13,"componentType":5126,"count":24,"max":[1,1,1],"min":[-1,-1,-1],"type":"VEC3"},{"bufferView":14,"componentType":5126,"count":24,"max":[0.625,0.6875],"min":[0.1875,0.171875],"type":"VEC2"},{"bufferView":15,"componentType":5123,"count":36,"max":[23],"min":[0],"type":"SCALAR"},{"bufferView":16,"componentType":5126,"count":24,"max":[0.125,0.75,0.125],"min":[-0.125,0,-0.125],"type":"VEC3"},{"bufferView":17,"componentType":5126,"count":24,"max":[1,1,1],"min":[-1,-1,-1],"type":"VEC3"},{"bufferView":18,"componentType":5126,"count":24,"max":[0.625,0.625],"min":[0.25,0],"type":"VEC2"},{"bufferView":19,"componentType":5123,"count":36,"max":[23],"min":[0],"type":"SCALAR"},{"bufferView":20,"componentType":5126,"count":24,"max":[0.125,0.75,0.125],"min":[-0.125,0,-0.125],"type":"VEC3"},{"bufferView":21,"componentType":5126,"count":24,"max":[1,1,1],"min":[-1,-1,-1],"type":"VEC3"},{"bufferView":22,"componentType":5126,"count":24,"max":[0.625,0.625],"min":[0,0],"type":"VEC2"},{"bufferView":23,"componentType":5123,"count":36,"max":[23],"min":[0],"type":"SCALAR"},{"bufferView":24,"componentType":5126,"count":3,"max":[3],"min":[0],"type":"SCALAR"},{"bufferView":25,"componentType":5126,"count":3,"max":[0,0,0,1],"min":[-0.04361938685178757,0,0,0.9990482330322266],"type":"VEC4"},{"bufferView":26,"componentType":5126,"count":3,"max":[3],"min":[0],"type":"SCALAR"},{"bufferView":27,"componentType":5126,"count":3,"max":[0.04361938685178757,0,0,1],"min":[0,0,0,0.9990482330322266],"type":"VEC4"},{"bufferView":28,"componentType":5126,"count":5,"max":[2],"min":[0],"type":"SCALAR"},{"bufferView":29,"componentType":5126,"count":5,"max":[0,0,0.3420201539993286,1],"min":[0,0,-0.3420201539993286,0.9396926164627075],"type":"VEC4"},{"bufferView":30,"componentType":5126,"count":5,"max":[2],"min":[0],"type":"SCALAR"},{"bufferView":31,"componentType":5126,"count":5,"max":[0,0,0.3420201539993286,1],"min":[0,0,-0.3420201539993286,0.9396926164627075],"type":"VEC4"},{"bufferView":32,"componentType":5126,"count":5,"max":[2],"min":[0],"type":"SCALAR"},{"bufferView":33,"componentType":5126,"count":5,"max":[0,0,0.3420201539993286,1],"min":[0,0,-0.3420201539993286,0.9396926164627075],"type":"VEC4"},{"bufferView":34,"componentType":5126,"count":5,"max":[2],"min":[0],"type":"SCALAR"},{"bufferView":35,"componentType":5126,"count":5,"max":[0,0,0.3420201539993286,1],"min":[0,0,-0.3420201539993286,0.9396926164627075],"type":"VEC4"},{"bufferView":36,"componentType":5126,"count":27,"max":[1.5],"min":[0],"type":"SCALAR"},{"bufferView":37,"componentType":5126,"count":27,"max":[0.11572431772947311,0.19428503513336182,0.5269755721092224,1],"min":[-0.1800128072500229,0,0,0.8271859288215637],"type":"VEC4"},{"bufferView":38,"componentType":5126,"count":2,"max":[0.5],"min":[0],"type":"SCALAR"},{"bufferView":39,"componentType":5126,"count":2,"max":[0.09813478589057922,0.08606189489364624,0.6537050008773804,1],"min":[0,0,0,0.7454077005386353],"type":"VEC4"},{"bufferView":40,"componentType":5126,"count":2,"max":[0.5],"min":[0],"type":"SCALAR"},{"bufferView":41,"componentType":5126,"count":2,"max":[0,0,0.6330048441886902,1],"min":[-0.21038658916950226,-0.18450409173965454,0,0.7218037247657776],"type":"VEC4"},{"bufferView":42,"componentType":5126,"count":2,"max":[2.5],"min":[0.5],"type":"SCALAR"},{"bufferView":43,"componentType":5126,"count":2,"max":[0,1.375,-0.3125],"min":[-0.1875,1.375,-0.3125],"type":"VEC3"},{"bufferView":44,"componentType":5126,"count":9,"max":[2],"min":[0],"type":"SCALAR"},{"bufferView":45,"componentType":5126,"count":9,"max":[0.08268801122903824,0.3206687271595001,0.6185226440429688,1],"min":[0,0,0,0.7140536308288574],"type":"VEC4"}],"materials":[{"pbrMetallicRoughness":{"metallicFactor":0,"roughnessFactor":1,"baseColorTexture":{"index":0}},"alphaMode":"MASK","alphaCutoff":0.05,"doubleSided":true}],"textures":[{"sampler":0,"source":0,"name":"agent0_skin.png"}],"samplers":[{"magFilter":9728,"minFilter":9728,"wrapS":33071,"wrapT":33071}],"images":[{"mimeType":"image/png","name":"agent0_skin.png","uri":"../textures/agent1_skin.png"}],"meshes":[{"primitives":[{"mode":4,"attributes":{"POSITION":0,"NORMAL":1,"TEXCOORD_0":2},"indices":3,"material":0}]},{"primitives":[{"mode":4,"attributes":{"POSITION":4,"NORMAL":5,"TEXCOORD_0":6},"indices":7,"material":0}]},{"primitives":[{"mode":4,"attributes":{"POSITION":8,"NORMAL":9,"TEXCOORD_0":10},"indices":11,"material":0}]},{"primitives":[{"mode":4,"attributes":{"POSITION":12,"NORMAL":13,"TEXCOORD_0":14},"indices":15,"material":0}]},{"primitives":[{"mode":4,"attributes":{"POSITION":16,"NORMAL":17,"TEXCOORD_0":18},"indices":19,"material":0}]},{"primitives":[{"mode":4,"attributes":{"POSITION":20,"NORMAL":21,"TEXCOORD_0":22},"indices":23,"material":0}]}],"animations":[{"name":"idle","samplers":[{"input":24,"output":25,"interpolation":"LINEAR"},{"input":26,"output":27,"interpolation":"LINEAR"}],"channels":[{"sampler":0,"target":{"node":10,"path":"rotation"}},{"sampler":1,"target":{"node":12,"path":"rotation"}}]},{"name":"walk","samplers":[{"input":28,"output":29,"interpolation":"LINEAR"},{"input":30,"output":31,"interpolation":"LINEAR"},{"input":32,"output":33,"interpolation":"LINEAR"},{"input":34,"output":35,"interpolation":"LINEAR"}],"channels":[{"sampler":0,"target":{"node":5,"path":"rotation"}},{"sampler":1,"target":{"node":7,"path":"rotation"}},{"sampler":2,"target":{"node":10,"path":"rotation"}},{"sampler":3,"target":{"node":12,"path":"rotation"}}]},{"name":"swing","samplers":[{"input":36,"output":37,"interpolation":"LINEAR"}],"channels":[{"sampler":0,"target":{"node":10,"path":"rotation"}}]},{"name":"draw_bow","samplers":[{"input":38,"output":39,"interpolation":"LINEAR"},{"input":40,"output":41,"interpolation":"LINEAR"},{"input":42,"output":43,"interpolation":"LINEAR"}],"channels":[{"sampler":0,"target":{"node":10,"path":"rotation"}},{"sampler":1,"target":{"node":12,"path":"rotation"}},{"sampler":2,"target":{"node":12,"path":"translation"}}]},{"name":"eat","samplers":[{"input":44,"output":45,"interpolation":"LINEAR"}],"channels":[{"sampler":0,"target":{"node":10,"path":"rotation"}}]}]}