{"asset":{"version":"2.0","generator":"Blockbench 5.0.7 glTF exporter"},"scenes":[{"nodes":[0,1,7],"name":"blockbench_export"}],"scene":0,"nodes":[{"name":"mesh","mesh":0},{"translation":[0,0.375,0],"name":"mesh","mesh":1},{"name":"mesh","mesh":2},{"rotation":[-0.2090645693882687,-0.05601869156118255,0.2526839927007083,0.9430295392272182],"name":"mesh","mesh":3},{"rotation":[0.06145886379345982,0.02236918975109632,0.17327634354488589,0.9826992094119192],"name":"mesh","mesh":4},{"rotation":[0.23565243230960997,-0.03102426642617511,-0.12678561960209153,0.9630321036712098],"name":"mesh","mesh":5},{"rotation":[-0.18883789319121624,-0.17933125926374124,-0.11424661211008783,0.9587117716849786],"name":"mesh","mesh":6},{"name":"feathers","children":[2,3,4,5,6]}],"bufferViews":[{"buffer":0,"byteOffset":0,"byteLength":288,"target":34962,"byteStride":12},{"buffer":0,"byteOffset":288,"byteLength":288,"target":34962,"byteStride":12},{"buffer":0,"byteOffset":576,"byteLength":192,"target":34962,"byteStride":8},{"buffer":0,"byteOffset":768,"byteLength":72,"target":34963},{"buffer":0,"byteOffset":840,"byteLength":192,"target":34962,"byteStride":12},{"buffer":0,"byteOffset":1032,"byteLength":192,"target":34962,"byteStride":12},{"buffer":0,"byteOffset":1224,"byteLength":128,"target":34962,"byteStride":8},{"buffer":0,"byteOffset":1352,"byteLength":36,"target":34963},{"buffer":0,"byteOffset":1388,"byteLength":288,"target":34962,"byteStride":12},{"buffer":0,"byteOffset":1676,"byteLength":288,"target":34962,"byteStride":12},{"buffer":0,"byteOffset":1964,"byteLength":192,"target":34962,"byteStride":8},{"buffer":0,"byteOffset":2156,"byteLength":72,"target":34963},{"buffer":0,"byteOffset":2228,"byteLength":288,"target":34962,"byteStride":12},{"buffer":0,"byteOffset":2516,"byteLength":288,"target":34962,"byteStride":12},{"buffer":0,"byteOffset":2804,"byteLength":192,"target":34962,"byteStride":8},{"buffer":0,"byteOffset":2996,"byteLength":72,"target":34963},{"buffer":0,"byteOffset":3068,"byteLength":288,"target":34962,"byteStride":12},{"buffer":0,"byteOffset":3356,"byteLength":288,"target":34962,"byteStride":12},{"buffer":0,"byteOffset":3644,"byteLength":192,"target":34962,"byteStride":8},{"buffer":0,"byteOffset":3836,"byteLength":72,"target":34963},{"buffer":0,"byteOffset":3908,"byteLength":288,"target":34962,"byteStride":12},{"buffer":0,"byteOffset":4196,"byteLength":288,"target":34962,"byteStride":12},{"buffer":0,"byteOffset":4484,"byteLength":192,"target":34962,"byteStride":8},{"buffer":0,"byteOffset":4676,"byteLength":72,"target":34963},{"buffer":0,"byteOffset":4748,"byteLength":288,"target":34962,"byteStride":12},{"buffer":0,"byteOffset":5036,"byteLength":288,"target":34962,"byteStride":12},{"buffer":0,"byteOffset":5324,"byteLength":192,"target":34962,"byteStride":8},{"buffer":0,"byteOffset":5516,"byteLength":72,"target":34963}],"buffers":[{"byteLength":5588,"uri":"data:application/octet-stream;base64,"}],"accessors":[{"bufferView":0,"componentType":5126,"count":24,"max":[0.015625,0.375,0.015625],"min":[-0.015625,0,-0.015625],"type":"VEC3"},{"bufferView":1,"componentType":5126,"count":24,"max":[1,1,1],"min":[-1,-1,-1],"type":"VEC3"},{"bufferView":2,"componentType":5126,"count":24,"max":[0.625,0.5625],"min":[0,0],"type":"VEC2"},{"bufferView":3,"componentType":5123,"count":36,"max":[23],"min":[0],"type":"SCALAR"},{"bufferView":4,"componentType":5126,"count":16,"max":[0.03750000149011612,0.125,0.03750000149011612],"min":[-0.03750000149011612,0,-0.03750000149011612],"type":"VEC3"},{"bufferView":5,"componentType":5126,"count":16,"max":[0.9578262567520142,0.2873478829860687,0.9578262567520142],"min":[-0.9578262567520142,-1,-0.9578262567520142],"type":"VEC3"},{"bufferView":6,"componentType":5126,"count":16,"max":[0.5985418558120728,0.5732868909835815],"min":[0.026458125561475754,0],"type":"VEC2"},{"bufferView":7,"componentType":5123,"count":18,"max":[15],"min":[0],"type":"SCALAR"},{"bufferView":8,"componentType":5126,"count":24,"max":[0.01875000074505806,0,0.01875000074505806],"min":[-0.01875000074505806,-0.125,-0.01875000074505806],"type":"VEC3"},{"bufferView":9,"componentType":5126,"count":24,"max":[1,1,1],"min":[-1,-1,-1],"type":"VEC3"},{"bufferView":10,"componentType":5126,"count":24,"max":[1.5,2],"min":[0,0],"type":"VEC2"},{"bufferView":11,"componentType":5123,"count":36,"max":[23],"min":[0],"type":"SCALAR"},{"bufferView":12,"componentType":5126,"count":24,"max":[0.01875000074505806,0,0.01875000074505806],"min":[-0.01875000074505806,-0.125,-0.01875000074505806],"type":"VEC3"},{"bufferView":13,"componentType":5126,"count":24,"max":[1,1,1],"min":[-1,-1,-1],"type":"VEC3"},{"bufferView":14,"componentType":5126,"count":24,"max":[1.5,2],"min":[0,0],"type":"VEC2"},{"bufferView":15,"componentType":5123,"count":36,"max":[23],"min":[0],"type":"SCALAR"},{"bufferView":16,"componentType":5126,"count":24,"max":[0.01875000074505806,0,0.01875000074505806],"min":[-0.01875000074505806,-0.125,-0.01875000074505806],"type":"VEC3"},{"bufferView":17,"componentType":5126,"count":24,"max":[1,1,1],"min":[-1,-1,-1],"type":"VEC3"},{"bufferView":18,"componentType":5126,"count":24,"max":[1.5,2],"min":[0,0],"type":"VEC2"},{"bufferView":19,"componentType":5123,"count":36,"max":[23],"min":[0],"type":"SCALAR"},{"bufferView":20,"componentType":5126,"count":24,"max":[0.01875000074505806,0,0.01875000074505806],"min":[-0.01875000074505806,-0.125,-0.01875000074505806],"type":"VEC3"},{"bufferView":21,"componentType":5126,"count":24,"max":[1,1,1],"min":[-1,-1,-1],"type":"VEC3"},{"bufferView":22,"componentType":5126,"count":24,"max":[1.5,2],"min":[0,0],"type":"VEC2"},{"bufferView":23,"componentType":5123,"count":36,"max":[23],"min":[0],"type":"SCALAR"},{"bufferView":24,"componentType":5126,"count":24,"max":[0.01875000074505806,0,0.01875000074505806],"min":[-0.01875000074505806,-0.125,-0.01875000074505806],"type":"VEC3"},{"bufferView":25,"componentType":5126,"count":24,"max":[1,1,1],"min":[-1,-1,-1],"type":"VEC3"},{"bufferView":26,"componentType":5126,"count":24,"max":[1.5,2],"min":[0,0],"type":"VEC2"},{"bufferView":27,"componentType":5123,"count":36,"max":[23],"min":[0],"type":"SCALAR"}],"materials":[{"pbrMetallicRoughness":{"metallicFactor":0,"roughnessFactor":1,"baseColorTexture":{"index":0}},"alphaMode":"MASK","alphaCutoff":0.05,"doubleSided":true},{"pbrMetallicRoughness":{"metallicFactor":0,"roughnessFactor":1,"baseColorTexture":{"index":1}},"alphaMode":"MASK","alphaCutoff":0.05,"doubleSided":true}],"textures":[{"sampler":0,"source":0,"name":"texture"},{"sampler":1,"source":1,"name":"feather"}],"samplers":[{"magFilter":9728,"minFilter":9728,"wrapS":33071,"wrapT":33071},{"magFilter":9728,"minFilter":9728,"wrapS":33071,"wrapT":33071}],"images":[{"mimeType":"image/png","uri":"data:image/png;base64,"},{"mimeType":"image/png","uri":"data:image/png;base64,"}],"meshes":[{"primitives":[{"mode":4,"attributes":{"POSITION":0,"NORMAL":1,"TEXCOORD_0":2},"indices":3,"material":0}]},{"primitives":[{"mode":4,"attributes":{"POSITION":4,"NORMAL":5,"TEXCOORD_0":6},"indices":7,"material":0}]},{"primitives":[{"mode":4,"attributes":{"POSITION":8,"NORMAL":9,"TEXCOORD_0":10},"indices":11,"material":1}]},{"primitives":[{"mode":4,"attributes":{"POSITION":12,"NORMAL":13,"TEXCOORD_0":14},"indices":15,"material":1}]},{"primitives":[{"mode":4,"attributes":{"POSITION":16,"NORMAL":17,"TEXCOORD_0":18},"indices":19,"material":1}]},{"primitives":[{"mode":4,"attributes":{"POSITION":20,"NORMAL":21,"TEXCOORD_0":22},"indices":23,"material":1}]},{"primitives":[{"mode":4,"attributes":{"POSITION":24,"NORMAL":25,"TEXCOORD_0":26},"indices":27,"material":1}]}]}